<svg xmlns="http://www.w3.org/2000/svg" width="1024" height="1024" viewBox="0 0 1024 1024">
<g>
<path d="M 657.15,942.93 C649.53,941.42 640.96,935.00 635.00,926.32 C633.58,924.25 633.08,924.18 625.50,924.98 C615.73,926.00 609.51,924.97 601.34,920.98 C583.89,912.44 572.62,891.07 571.32,864.00 C569.46,825.34 588.43,797.04 618.56,793.55 C626.10,792.68 637.21,794.90 644.14,798.67 C655.65,804.94 665.68,819.20 670.19,835.71 C673.25,846.97 673.25,872.04 670.18,883.30 C667.17,894.35 662.75,903.02 656.82,909.51 L 651.70,915.11 L 656.10,919.64 C663.25,926.98 665.64,928.31 672.91,928.93 C678.88,929.45 679.53,929.72 679.83,931.87 C680.06,933.47 679.13,935.31 676.91,937.60 C672.19,942.46 664.80,944.46 657.15,942.93 M 627.00,910.65 C627.00,908.65 621.41,901.29 618.78,899.85 C617.53,899.16 614.48,898.35 612.00,898.05 C607.78,897.53 607.48,897.29 607.19,894.24 C606.94,891.70 607.54,890.31 609.86,887.99 C612.36,885.49 613.63,885.00 617.67,885.02 C623.58,885.05 629.45,887.60 634.87,892.50 L 638.97,896.21 L 640.09,893.35 C643.71,884.09 645.30,851.93 642.96,835.50 C640.30,816.84 633.90,808.00 623.05,808.00 C608.18,808.00 601.02,824.73 601.01,859.53 C600.99,888.68 605.17,904.48 614.39,910.10 C618.13,912.38 627.00,912.77 627.00,910.65 M 358.20,921.80 C355.54,919.14 357.47,913.60 361.40,912.61 C367.22,911.15 367.00,913.20 367.00,860.08 C367.00,805.89 367.51,809.92 360.25,807.04 C357.53,805.97 357.00,805.23 357.00,802.58 C357.00,800.83 357.54,798.86 358.20,798.20 C360.06,796.34 414.34,796.58 423.36,798.49 C439.39,801.88 448.34,812.25 448.40,827.50 C448.46,839.55 442.42,849.14 431.38,854.55 C428.69,855.86 427.18,856.95 428.00,856.97 C428.82,856.99 432.22,858.29 435.54,859.86 C443.35,863.55 449.48,870.39 451.64,877.82 C453.81,885.29 453.13,898.01 450.26,903.50 C445.37,912.84 434.52,919.93 422.00,921.94 C412.55,923.46 359.74,923.34 358.20,921.80 M 413.76,907.25 C416.00,906.09 418.70,903.39 420.50,900.49 C423.20,896.14 423.50,894.86 423.45,887.58 C423.40,878.63 421.24,872.91 416.49,869.17 C413.47,866.79 405.92,865.00 398.95,865.00 L 394.00,865.00 L 394.00,886.53 C394.00,907.91 394.02,908.07 396.25,909.03 C399.59,910.47 409.49,909.46 413.76,907.25 M 407.68,850.67 C415.56,847.77 419.94,840.39 419.98,829.96 C420.00,822.08 417.09,815.45 412.41,812.77 C410.63,811.76 406.06,810.73 401.66,810.35 L 394.00,809.71 L 394.00,830.85 L 394.00,852.00 L 399.25,851.92 C402.14,851.88 405.93,851.32 407.68,850.67 M 466.05,921.56 C463.82,918.87 465.20,914.65 468.92,912.79 C475.95,909.28 475.50,912.80 475.50,861.71 C475.50,836.30 475.15,814.23 474.71,812.68 C474.15,810.64 472.71,809.32 469.58,807.93 C464.73,805.78 463.28,802.47 465.70,799.02 C467.06,797.07 468.15,797.00 495.31,797.02 C516.10,797.03 525.30,797.42 530.36,798.49 C546.73,801.96 555.23,811.97 555.17,827.72 C555.14,833.73 554.62,836.26 552.51,840.57 C549.70,846.30 544.14,851.73 537.90,854.82 L 534.08,856.71 L 538.14,857.92 C553.19,862.43 561.00,874.58 559.72,891.50 C558.45,908.25 547.42,918.78 527.79,921.96 C524.33,922.53 509.29,922.99 494.37,922.99 C471.98,923.00 467.04,922.75 466.05,921.56 M 520.76,907.26 C525.13,905.00 528.55,900.37 530.12,894.60 C531.37,889.98 530.68,879.18 528.92,875.76 C525.33,868.79 517.72,865.00 507.32,865.00 L 502.00,865.00 L 502.00,886.93 C502.00,906.95 502.15,908.90 503.75,909.37 C507.19,910.38 517.08,909.15 520.76,907.26 M 514.31,850.79 C519.62,849.20 524.64,844.06 526.06,838.76 C527.92,831.87 527.37,823.40 524.77,818.70 C521.73,813.21 517.64,811.02 509.07,810.30 L 502.00,809.71 L 502.00,830.85 L 502.00,852.00 L 506.13,852.00 C508.41,852.00 512.09,851.45 514.31,850.79 M 111.64,762.30 C105.31,760.17 103.41,759.89 101.90,760.83 C99.58,762.28 96.33,762.35 95.48,760.96 C95.12,760.39 94.20,752.70 93.43,743.87 C91.91,726.56 92.29,724.00 96.38,724.00 C99.45,724.00 101.56,726.54 103.01,731.99 C105.42,741.03 110.35,747.68 116.32,749.94 C120.99,751.70 128.88,751.24 132.53,748.98 C138.24,745.45 140.72,735.06 137.63,727.65 C135.45,722.44 130.41,717.38 118.99,708.95 C113.16,704.64 106.24,698.83 103.62,696.03 C92.16,683.77 89.96,667.38 97.82,652.68 C104.99,639.26 122.92,632.83 140.03,637.56 C143.59,638.54 148.47,639.45 150.88,639.58 C153.29,639.70 155.62,640.38 156.05,641.08 C157.01,642.63 158.31,661.02 157.84,666.40 C157.44,670.95 155.01,673.12 152.25,671.40 C151.29,670.80 149.48,667.42 148.23,663.90 C144.35,652.94 135.65,646.90 126.68,648.95 C122.07,650.00 119.19,652.40 117.36,656.72 C114.59,663.26 116.39,671.63 121.80,677.35 C123.29,678.93 128.99,683.43 134.49,687.35 C147.28,696.51 154.73,704.01 158.50,711.52 C161.29,717.09 161.50,718.26 161.50,728.60 C161.50,739.31 161.38,739.94 158.00,746.56 C149.88,762.49 131.15,768.84 111.64,762.30 M 709.59,762.94 C692.89,760.14 680.79,747.07 674.81,725.34 C671.68,714.00 671.66,686.10 674.75,674.86 C682.69,646.10 703.27,630.60 725.83,636.38 C742.26,640.59 753.03,653.18 758.66,674.75 C760.81,683.01 761.20,686.72 761.22,699.00 C761.23,714.98 759.70,724.48 755.40,735.05 C750.71,746.60 742.20,756.27 733.42,760.03 C729.40,761.76 718.16,764.17 715.50,763.87 C714.95,763.81 712.29,763.39 709.59,762.94 M 725.03,747.75 C732.99,742.36 735.44,730.59 735.37,698.00 C735.32,673.18 734.06,664.19 729.57,656.52 C723.70,646.52 710.30,646.52 704.43,656.52 C699.68,664.63 698.58,672.99 698.59,701.00 C698.60,721.77 698.92,727.78 700.33,733.42 C703.42,745.84 707.41,749.89 716.60,749.96 C720.29,749.99 722.63,749.38 725.03,747.75 M 311.00,760.23 C303.50,757.34 300.47,755.31 295.68,749.98 C285.96,739.18 281.82,725.58 281.82,704.50 C281.82,682.99 285.90,670.27 296.35,659.22 C304.28,650.84 311.32,647.85 323.03,647.88 C332.81,647.91 340.15,650.99 347.13,657.97 C353.45,664.29 356.71,670.06 360.15,681.03 C362.23,687.63 362.50,690.41 362.46,705.00 C362.43,717.68 362.01,722.99 360.64,727.92 C356.60,742.46 347.54,754.77 337.70,759.07 C330.70,762.13 317.44,762.71 311.00,760.23 M 326.67,750.01 C329.17,749.98 334.03,743.70 335.52,738.58 C337.83,730.63 338.90,710.46 337.95,693.00 C336.95,674.89 335.24,668.04 330.50,663.30 C327.75,660.55 326.45,660.00 322.73,660.00 C315.17,660.00 310.39,665.57 308.15,677.00 C305.25,691.82 306.00,728.04 309.45,739.56 C311.66,746.94 317.76,751.67 323.50,750.45 C324.60,750.22 326.03,750.02 326.67,750.01 M 171.20,759.80 C168.88,757.48 169.85,754.29 173.52,752.12 C175.45,750.98 177.47,748.88 178.02,747.46 C179.30,744.09 179.33,666.01 178.06,662.65 C177.54,661.29 176.21,659.88 175.11,659.53 C172.82,658.81 171.65,656.07 172.59,653.62 C173.16,652.14 175.11,651.98 189.85,652.23 L 206.48,652.50 L 214.53,678.00 C218.96,692.02 222.79,704.07 223.05,704.77 C223.30,705.46 226.35,695.79 229.81,683.27 C233.28,670.75 236.65,658.70 237.31,656.50 L 238.50,652.50 L 255.22,652.23 L 271.95,651.95 L 272.60,654.55 C273.14,656.68 272.65,657.65 269.88,659.96 L 266.50,662.78 L 266.16,689.14 C265.98,703.64 266.14,722.91 266.53,731.97 L 267.23,748.44 L 270.70,751.62 C274.82,755.39 274.95,759.02 271.00,760.11 C269.62,760.49 261.69,760.85 253.37,760.90 C241.12,760.98 238.01,760.72 237.01,759.51 C235.23,757.37 236.53,753.53 239.50,752.18 C240.90,751.55 242.48,749.86 243.02,748.45 C243.59,746.94 243.98,732.06 243.95,712.68 L 243.90,679.50 L 234.94,710.50 C230.02,727.55 225.30,743.86 224.47,746.74 C223.35,750.61 222.23,752.34 220.19,753.40 C217.74,754.67 217.19,754.64 215.31,753.17 C213.25,751.55 211.32,745.22 196.76,692.50 C195.09,686.45 193.45,681.18 193.11,680.80 C192.37,679.95 192.78,741.16 193.54,745.73 C193.90,747.86 195.26,749.86 197.54,751.60 C201.29,754.46 201.90,756.96 199.43,759.43 C198.16,760.69 195.37,761.00 185.13,761.00 C176.56,761.00 172.01,760.61 171.20,759.80 M 370.67,759.33 C368.85,757.52 370.22,754.19 373.73,751.92 C376.75,749.95 377.61,748.66 378.30,745.00 C379.49,738.68 378.33,664.48 376.99,661.99 C376.41,660.91 374.58,659.32 372.91,658.45 C370.50,657.21 369.94,656.33 370.19,654.19 L 370.50,651.50 L 390.00,651.50 C409.33,651.50 409.50,651.52 409.81,653.70 C410.04,655.30 409.16,656.53 406.58,658.20 C404.64,659.46 402.58,661.80 402.02,663.40 C400.73,667.06 400.64,700.77 401.92,699.45 C404.55,696.74 424.00,664.49 424.00,662.83 C424.00,661.77 422.84,659.83 421.42,658.52 C419.76,656.97 418.96,655.31 419.17,653.81 C419.50,651.50 419.52,651.50 436.00,651.50 C452.05,651.50 452.51,651.56 452.80,653.62 C453.03,655.18 451.82,656.66 448.21,659.25 C443.51,662.63 423.00,688.23 423.00,690.72 C423.00,692.73 447.82,744.07 450.48,747.56 C451.92,749.45 454.43,751.69 456.05,752.53 C457.67,753.37 458.99,754.83 458.98,755.78 C458.95,759.91 458.16,760.06 437.93,759.77 C418.95,759.51 418.49,759.45 418.20,757.37 C418.01,756.06 418.80,754.51 420.24,753.37 C421.54,752.34 422.96,750.90 423.41,750.16 C424.23,748.83 408.38,714.00 406.95,714.00 C406.57,714.00 405.08,715.79 403.63,717.98 C401.23,721.60 401.00,722.83 401.02,731.73 C401.05,743.37 402.18,748.96 404.92,751.00 C406.02,751.83 407.91,753.19 409.10,754.04 C410.70,755.19 411.08,756.16 410.57,757.79 C409.88,759.97 409.59,760.00 390.60,760.00 C380.00,760.00 371.03,759.70 370.67,759.33 M 468.00,757.25 C468.00,755.30 469.09,753.58 471.75,751.35 L 475.50,748.20 L 475.46,706.35 C475.42,661.11 475.44,661.31 469.97,658.48 C466.23,656.55 465.80,652.33 469.25,651.48 C470.49,651.18 479.15,651.06 488.50,651.21 L 505.50,651.50 L 505.81,654.19 C506.05,656.31 505.50,657.20 503.26,658.37 C498.10,661.03 498.00,661.96 498.00,705.08 C498.00,737.73 498.27,745.70 499.45,748.53 C500.25,750.44 501.53,752.00 502.29,752.00 C504.80,752.00 506.86,755.28 505.92,757.75 C505.08,759.97 504.83,760.00 486.53,760.00 L 468.00,760.00 L 468.00,757.25 M 517.69,759.36 C517.31,758.98 517.00,757.44 517.00,755.93 C517.00,753.87 517.85,752.69 520.47,751.15 C522.37,750.03 524.19,748.07 524.51,746.80 C524.82,745.54 524.95,725.89 524.79,703.13 L 524.50,661.77 L 522.21,660.13 C515.95,655.66 515.74,655.40 516.44,653.19 C517.11,651.07 517.58,651.00 532.14,651.00 L 547.15,651.00 L 562.57,682.54 C571.06,699.88 578.00,714.42 578.00,714.85 C578.00,715.27 578.70,716.49 579.55,717.56 C580.97,719.32 581.05,717.07 580.50,693.00 C580.16,678.42 579.45,665.12 578.92,663.43 C578.29,661.39 576.78,659.79 574.48,658.69 C570.87,656.97 569.90,654.15 572.26,652.20 C573.71,650.99 600.98,650.25 602.79,651.37 C603.46,651.78 604.00,653.21 604.00,654.55 C604.00,656.34 603.15,657.33 600.75,658.33 C594.22,661.06 594.52,658.64 594.25,710.40 C594.11,736.31 593.78,758.08 593.52,758.79 C593.16,759.74 590.72,760.00 584.27,759.79 L 575.50,759.50 L 557.26,723.50 L 539.02,687.50 L 539.26,717.15 C539.49,745.21 539.61,746.91 541.50,749.01 C542.60,750.23 544.54,751.63 545.81,752.11 C547.68,752.83 548.07,753.62 547.81,756.25 L 547.50,759.50 L 532.94,759.78 C524.94,759.93 518.07,759.74 517.69,759.36 M 761.05,758.09 C759.29,754.81 759.84,753.29 763.55,751.10 C766.00,749.66 767.85,747.36 769.48,743.75 C770.79,740.86 776.85,719.61 782.97,696.52 C789.08,673.42 794.75,653.51 795.56,652.27 C796.93,650.18 797.78,650.00 806.50,650.00 C815.21,650.00 816.07,650.18 817.38,652.25 C818.16,653.49 823.82,674.52 829.94,699.00 C836.06,723.48 841.55,744.70 842.13,746.17 C842.70,747.64 844.71,750.24 846.59,751.94 C850.21,755.24 850.74,756.86 848.80,758.80 C847.11,760.49 812.89,760.49 811.20,758.80 C809.19,756.79 809.85,754.25 812.92,752.05 C816.82,749.28 817.42,745.74 815.47,737.15 L 813.84,730.00 L 801.04,730.00 C786.28,730.00 787.48,729.05 786.36,741.68 C785.72,748.82 785.74,748.87 788.95,751.80 C791.21,753.87 792.07,755.46 791.84,757.12 C791.50,759.49 791.42,759.50 776.80,759.78 C763.07,760.03 762.03,759.92 761.05,758.09 M 810.02,717.25 C810.04,715.83 801.66,680.01 801.37,680.30 C801.21,680.46 799.02,688.22 796.50,697.55 C793.98,706.87 791.68,715.29 791.39,716.25 C790.92,717.83 791.79,718.00 800.43,718.00 C805.69,718.00 810.01,717.66 810.02,717.25 M 856.10,757.75 C855.04,754.89 855.67,753.24 858.12,752.46 C859.18,752.12 860.83,750.66 861.78,749.21 C863.35,746.81 863.48,742.83 863.33,704.68 L 863.15,662.79 L 860.90,660.40 C859.66,659.08 858.10,658.00 857.43,658.00 C855.82,658.00 855.00,655.70 855.69,653.10 C856.22,651.06 856.79,651.00 875.01,651.00 C891.21,651.00 893.87,651.22 894.39,652.58 C895.53,655.56 895.00,656.63 891.56,658.27 C886.81,660.54 886.01,664.20 886.04,683.50 L 886.07,699.50 L 888.03,697.14 C892.30,692.02 907.20,666.53 907.69,663.51 C908.12,660.88 907.73,659.93 905.49,658.17 C903.36,656.49 902.91,655.49 903.41,653.52 L 904.04,651.00 L 919.96,651.00 C930.07,651.00 936.12,651.39 936.54,652.06 C937.87,654.22 935.93,657.57 932.08,659.75 C928.27,661.90 920.45,671.15 911.14,684.51 L 906.95,690.51 L 916.32,711.01 C931.74,744.72 935.87,752.00 939.56,752.00 C941.68,752.00 943.25,754.87 942.59,757.51 L 941.95,760.04 L 922.73,759.77 L 903.50,759.50 L 903.19,756.81 C902.96,754.83 903.55,753.68 905.44,752.45 C908.66,750.34 908.65,748.71 905.36,741.94 C900.81,732.54 893.86,717.60 892.86,715.06 C891.91,712.64 891.87,712.66 888.96,717.06 C886.13,721.32 886.01,721.95 886.06,732.50 C886.12,745.86 887.32,749.98 891.70,751.91 C895.44,753.56 896.40,755.38 894.96,758.07 C894.00,759.87 892.67,760.00 875.43,760.00 C857.16,760.00 856.93,759.97 856.10,757.75 M 613.67,681.33 C612.11,679.78 613.22,676.17 616.09,673.44 C617.79,671.82 620.10,668.72 621.22,666.53 C623.17,662.75 623.18,662.52 621.47,661.53 C613.37,656.87 613.22,645.88 621.19,641.03 C625.26,638.55 628.46,638.47 632.92,640.75 C639.94,644.35 641.86,653.47 637.53,662.75 C632.81,672.90 617.31,684.97 613.67,681.33 M 490.73,591.42 C475.01,588.57 460.26,581.16 449.03,570.45 L 443.38,565.06 L 428.44,566.04 C402.11,567.77 315.00,568.40 286.50,567.07 C272.20,566.39 258.02,565.52 255.00,565.12 L 249.50,564.39 L 257.00,563.67 C261.12,563.27 285.84,561.61 311.91,559.98 C337.99,558.35 359.48,556.85 359.68,556.66 C360.29,556.05 339.29,555.00 324.09,554.89 C304.43,554.74 289.28,553.66 294.00,552.74 C295.93,552.37 313.02,551.13 332.00,550.00 C350.98,548.87 369.90,547.67 374.06,547.34 L 381.61,546.74 L 374.22,542.92 C360.43,535.78 350.32,524.97 342.73,509.25 L 338.75,501.00 L 327.13,501.02 C320.73,501.03 294.35,501.68 268.50,502.47 C242.65,503.25 207.94,504.21 191.36,504.60 L 161.22,505.30 L 160.52,532.40 C160.13,547.30 159.97,561.68 160.16,564.35 C160.49,568.99 160.67,569.25 164.41,570.54 C166.56,571.27 169.22,572.78 170.33,573.88 C174.74,578.30 166.97,581.38 151.50,581.35 C140.90,581.33 134.00,579.46 134.00,576.62 C134.00,574.69 138.23,571.41 142.56,569.98 L 146.00,568.84 L 146.00,537.15 L 146.00,505.46 L 138.47,505.84 C128.18,506.36 125.39,505.11 124.56,499.58 C123.36,491.55 125.36,489.38 134.50,488.77 C138.14,488.52 138.53,488.23 138.81,485.50 C139.30,480.86 141.31,480.00 151.69,480.00 L 161.00,480.00 L 161.00,483.50 C161.00,487.67 157.49,487.45 192.50,485.50 C206.80,484.70 222.44,484.03 227.25,484.02 C232.06,484.01 236.00,483.66 236.00,483.25 C235.99,482.84 232.96,481.24 229.25,479.70 C225.54,478.16 217.55,474.33 211.50,471.20 L 200.50,465.50 L 199.84,423.00 C199.48,399.62 198.73,376.17 198.17,370.88 C197.07,360.49 197.91,353.86 200.71,350.76 C202.19,349.13 205.62,349.00 248.15,349.00 C288.24,349.00 294.00,348.81 294.00,347.50 C294.00,346.38 292.79,345.99 289.25,345.96 C285.70,345.92 282.02,344.72 274.71,341.21 L 264.93,336.50 L 264.97,231.80 L 265.02,127.11 L 262.51,124.60 C258.95,121.04 259.11,116.03 262.92,111.77 L 265.83,108.50 L 281.63,108.16 C303.02,107.69 307.34,109.17 308.68,117.44 C309.15,120.28 308.79,121.79 307.14,124.02 L 305.00,126.92 L 305.05,199.71 L 305.09,272.50 L 307.65,267.50 C311.13,260.71 317.48,254.25 323.50,251.39 L 328.50,249.02 L 407.75,249.01 L 487.00,249.00 L 487.00,242.75 C487.00,238.80 487.65,235.21 488.75,233.00 C490.45,229.60 490.72,229.48 498.00,228.71 C510.22,227.43 543.39,228.24 545.34,229.87 C547.16,231.38 548.61,236.02 549.52,243.22 L 550.11,247.94 L 611.81,248.22 L 673.50,248.50 L 679.21,251.30 C685.90,254.59 694.94,263.93 700.68,273.50 L 704.50,279.85 L 760.25,279.27 L 816.00,278.68 L 816.00,281.77 C816.00,284.19 814.86,285.96 810.75,289.91 L 805.50,294.96 L 761.75,294.98 C737.69,294.99 718.01,295.34 718.02,295.75 C718.09,299.24 718.84,299.29 761.90,298.80 L 804.00,298.31 L 804.00,369.15 L 804.00,440.00 L 806.38,440.00 C807.68,440.00 810.16,440.28 811.88,440.62 L 815.00,441.25 L 815.00,456.62 L 815.00,472.00 L 794.38,472.00 L 773.77,472.00 L 774.41,474.75 C774.76,476.26 775.32,483.35 775.64,490.50 C776.10,500.53 775.85,505.55 774.54,512.49 C771.57,528.25 765.27,543.00 757.40,552.67 C755.53,554.96 754.00,557.03 754.00,557.27 C754.00,557.51 756.81,557.76 760.25,557.83 C779.16,558.22 799.02,559.37 798.31,560.03 C797.12,561.14 777.76,563.74 760.00,565.16 C744.94,566.37 744.37,566.50 739.87,569.71 C737.32,571.53 732.33,574.34 728.78,575.95 C717.42,581.10 710.44,581.81 665.50,582.45 C642.95,582.77 611.45,583.46 595.50,583.97 C579.55,584.49 562.01,584.99 556.52,585.09 C549.03,585.23 544.81,585.86 539.63,587.63 C523.66,593.06 506.97,594.35 490.73,591.42 M 609.00,570.54 C622.48,569.84 630.12,569.20 626.00,569.12 C612.61,568.85 589.89,567.04 588.22,566.10 C586.92,565.38 587.40,564.98 590.54,564.17 C595.57,562.88 608.72,561.27 621.21,560.40 L 630.91,559.73 L 626.43,553.46 C620.70,545.42 615.72,534.61 612.83,523.93 C610.87,516.70 610.54,513.03 610.52,498.20 L 610.50,480.90 L 601.75,481.18 L 592.99,481.46 L 593.75,486.48 C594.96,494.55 594.38,514.91 592.73,522.52 C589.18,538.86 580.52,555.36 569.36,567.06 L 563.90,572.79 L 574.20,572.30 C579.86,572.02 595.52,571.23 609.00,570.54 M 524.47,559.47 C532.91,557.27 539.57,553.36 546.55,546.50 C561.06,532.25 568.35,510.17 564.56,491.93 C561.25,475.99 550.92,462.01 537.63,455.49 C527.27,450.41 521.02,449.40 511.66,451.31 C494.65,454.78 481.13,464.84 473.97,479.38 C469.86,487.70 467.00,499.32 467.00,507.63 C467.00,514.85 469.92,527.02 473.33,533.99 C479.36,546.34 491.83,556.30 505.35,559.58 C512.43,561.30 517.55,561.27 524.47,559.47 M 433.00,551.43 C433.00,550.93 431.08,546.93 430.49,546.21 C430.25,545.92 414.76,550.95 414.17,551.52 C413.98,551.69 418.15,551.87 423.42,551.91 C428.69,551.95 433.00,551.74 433.00,551.43 M 709.89,550.94 C726.33,547.15 740.55,533.14 747.09,514.28 C749.35,507.76 749.87,492.25 748.12,483.41 C745.14,468.33 736.45,456.80 723.12,450.26 C718.22,447.85 716.34,447.50 708.48,447.53 C700.17,447.56 698.83,447.86 691.63,451.28 C676.72,458.36 665.71,471.95 661.52,488.46 C659.42,496.71 659.56,510.97 661.83,519.14 C668.12,541.84 689.12,555.73 709.89,550.94 M 443.27,539.45 C440.83,532.14 440.87,504.52 443.34,493.00 C449.54,463.99 465.76,440.11 486.00,430.17 C497.63,424.45 507.92,422.00 520.27,422.00 C531.99,422.00 539.54,423.74 549.41,428.71 C562.09,435.09 570.10,441.42 576.83,450.38 C578.03,451.97 579.00,452.79 579.00,452.20 C579.00,449.80 566.80,436.00 560.38,431.14 C552.34,425.05 541.73,419.73 534.12,417.98 C526.09,416.13 506.31,417.22 497.50,419.99 C468.21,429.23 448.72,450.65 439.73,483.48 C437.88,490.21 437.54,494.06 437.56,507.50 C437.59,523.28 438.91,531.73 443.04,542.61 C444.81,547.25 445.00,544.63 443.27,539.45 M 639.00,529.51 C636.29,518.91 636.26,499.88 638.93,486.11 C644.31,458.35 662.38,433.96 685.34,423.44 C692.16,420.32 703.51,418.00 711.82,418.01 C729.80,418.05 750.34,428.48 759.12,442.04 C760.89,444.77 762.55,446.78 762.82,446.51 C763.48,445.85 756.74,435.82 752.42,431.04 C747.13,425.19 736.38,418.28 727.98,415.34 C721.94,413.23 718.67,412.72 711.00,412.72 C699.10,412.73 691.19,414.68 679.15,420.60 C658.24,430.87 640.84,454.68 635.59,480.21 C633.75,489.11 633.47,509.65 635.05,518.57 C636.20,525.02 640.07,538.26 640.65,537.69 C640.84,537.49 640.10,533.81 639.00,529.51 M 625.86,484.28 C633.79,454.21 646.24,434.02 665.01,420.74 C667.43,419.04 667.39,419.03 663.50,420.55 C656.33,423.34 651.44,426.78 645.35,433.28 C629.36,450.38 617.71,488.53 621.76,510.50 C622.35,513.72 622.61,512.35 623.09,503.50 C623.43,497.34 624.64,488.88 625.86,484.28 M 413.26,508.45 C414.22,508.09 415.00,506.89 415.00,505.80 C415.00,503.90 414.42,503.83 402.60,504.15 C395.78,504.34 390.44,504.88 390.73,505.35 C391.01,505.82 393.10,507.08 395.37,508.15 C398.54,509.64 400.90,509.98 405.51,509.60 C408.82,509.34 412.31,508.82 413.26,508.45 M 260.00,429.13 L 260.00,373.27 L 301.75,372.53 C324.71,372.13 343.65,371.66 343.83,371.49 C344.01,371.31 343.66,370.23 343.05,369.09 C341.94,367.02 341.50,367.00 298.46,367.00 L 255.00,367.00 L 255.00,426.00 L 255.00,485.00 L 257.50,485.00 L 260.00,485.00 L 260.00,429.13 M 363.88,452.75 C364.01,436.76 364.12,437.02 358.40,439.01 L 355.50,440.02 L 355.72,458.72 L 355.93,477.41 L 359.22,479.12 L 362.50,480.82 L 363.13,474.16 C363.47,470.50 363.81,460.86 363.88,452.75 M 418.90,473.54 C425.47,455.99 437.55,436.99 450.61,423.70 C460.00,414.15 468.00,408.35 479.21,402.97 C491.46,397.09 500.06,395.10 518.00,394.01 C538.43,392.76 664.89,389.69 700.50,389.58 C728.46,389.50 728.51,389.50 736.50,392.22 C747.94,396.12 756.39,401.40 764.99,410.03 C776.51,421.57 784.24,436.43 787.85,454.00 C790.17,465.26 790.60,461.50 788.54,448.00 C786.18,432.59 781.72,420.73 774.17,409.75 C769.97,403.64 758.28,392.88 751.86,389.21 C746.27,386.01 733.41,381.55 726.75,380.50 L 723.00,379.91 L 722.89,363.20 L 722.78,346.50 L 721.50,357.05 C720.80,362.85 719.70,370.11 719.07,373.18 L 717.91,378.76 L 696.70,379.39 C685.04,379.73 642.20,380.70 601.50,381.54 C484.36,383.95 483.01,384.05 467.31,391.45 C456.17,396.71 448.34,402.44 437.92,412.97 C422.84,428.22 411.15,447.35 403.99,468.52 L 401.19,476.80 L 406.85,477.77 C416.90,479.50 416.63,479.59 418.90,473.54 M 215.00,420.00 C215.00,397.45 214.88,379.00 214.74,379.00 C214.60,379.00 213.08,378.60 211.35,378.10 L 208.22,377.20 L 208.71,417.35 C209.17,456.04 209.27,457.56 211.21,459.25 C212.31,460.21 213.62,461.00 214.11,461.00 C214.62,461.00 215.00,443.26 215.00,420.00 M 279.93,447.37 C281.07,445.92 282.00,443.87 282.00,442.82 C282.00,440.35 277.65,436.00 275.18,436.00 C271.89,436.00 268.00,439.83 268.00,443.07 C268.00,449.55 275.96,452.42 279.93,447.37 M 357.04,408.88 C364.58,384.43 367.44,361.58 366.72,331.58 C365.98,300.86 362.94,285.37 354.88,271.29 C350.74,264.06 343.97,257.00 341.17,257.00 C338.43,257.00 338.45,257.41 341.39,261.32 C351.04,274.19 358.76,303.35 361.06,335.63 C362.96,362.30 359.72,396.82 353.41,417.25 C353.11,418.21 353.10,419.00 353.39,419.00 C353.68,419.00 355.32,414.44 357.04,408.88 M 246.52,371.25 C245.64,365.38 245.41,365.00 242.69,364.98 C241.49,364.97 233.30,363.62 224.50,361.98 C215.70,360.35 208.16,359.01 207.75,359.00 C206.36,359.00 206.92,368.03 208.35,368.58 C209.86,369.16 243.74,375.78 245.86,375.92 C246.93,375.98 247.07,374.96 246.52,371.25 M 486.00,351.00 C543.15,350.10 590.84,349.18 674.25,347.37 L 705.00,346.70 L 705.00,337.09 C705.00,325.68 702.62,304.19 700.42,295.68 C698.21,287.15 694.06,278.54 688.66,271.27 C683.77,264.69 676.92,259.00 673.89,259.00 C672.46,259.00 673.11,260.36 676.98,265.47 C683.02,273.45 689.23,286.34 692.58,297.82 C696.73,312.10 699.65,336.83 697.43,338.91 C696.92,339.39 664.33,340.31 625.00,340.96 C448.11,343.88 389.46,344.74 388.91,344.42 C388.58,344.23 388.02,337.57 387.66,329.61 C386.50,304.18 383.65,289.86 377.07,276.50 C372.67,267.54 367.29,260.72 362.81,258.40 C361.16,257.55 359.69,257.00 359.53,257.18 C359.38,257.35 361.40,261.24 364.04,265.81 C373.72,282.60 382.00,318.45 382.00,343.55 L 382.00,352.00 L 402.75,351.99 C414.16,351.99 451.62,351.54 486.00,351.00 M 282.00,231.58 L 282.00,128.17 L 284.75,127.16 C287.01,126.34 286.11,126.14 279.60,126.08 L 271.70,126.00 L 272.34,135.75 C272.70,141.11 272.99,187.41 272.99,238.64 L 273.00,331.79 L 276.75,333.34 C278.81,334.20 280.84,334.92 281.25,334.95 C281.66,334.98 282.00,288.46 282.00,231.58 M 316.24,325.06 L 330.97,325.00 L 328.79,320.50 L 326.60,316.00 L 312.39,316.00 L 298.19,316.00 L 296.59,320.68 C295.72,323.25 295.00,325.45 295.00,325.56 C295.00,325.67 296.46,325.62 298.25,325.45 C300.04,325.27 308.13,325.10 316.24,325.06 M 523.66,319.37 L 537.81,318.80 L 536.41,315.43 C533.33,308.07 536.05,298.17 542.15,294.57 C546.21,292.17 553.00,292.23 557.24,294.71 C564.77,299.10 568.83,309.56 565.51,315.98 C564.12,318.66 564.07,319.19 565.25,318.74 C566.04,318.43 594.24,317.85 627.91,317.44 L 689.13,316.71 L 688.49,312.60 C685.46,292.97 676.54,274.39 664.93,263.53 L 659.78,258.72 L 650.74,259.36 C645.76,259.71 617.00,260.00 586.82,260.00 L 531.95,260.00 L 533.47,262.95 C535.70,267.26 535.42,269.00 532.50,269.00 C530.91,269.00 530.00,268.44 530.00,267.45 C530.00,266.60 529.31,264.57 528.47,262.95 L 526.95,260.00 L 452.97,260.00 C407.42,260.00 379.00,260.36 379.00,260.94 C379.00,261.46 379.42,262.14 379.93,262.46 C381.71,263.56 389.18,284.34 391.52,294.68 C392.81,300.41 394.18,308.69 394.57,313.08 L 395.26,321.07 L 452.38,320.51 C483.80,320.20 515.87,319.69 523.66,319.37 M 557.55,315.55 C562.36,310.73 560.18,302.23 553.42,299.40 C544.10,295.51 537.51,307.67 544.92,315.08 C548.74,318.90 554.00,319.09 557.55,315.55 M 532.46,248.34 L 543.22,247.68 L 542.76,242.87 C541.99,234.79 542.63,235.00 518.00,235.00 C500.35,235.00 496.02,235.27 495.06,236.43 C494.40,237.22 493.61,240.37 493.29,243.43 L 492.72,249.00 L 507.20,249.00 C515.17,249.00 526.53,248.70 532.46,248.34 M 284.99,96.75 C278.48,86.08 283.41,74.33 295.96,70.60 C298.93,69.72 302.52,68.99 303.93,68.98 C305.34,68.97 308.42,68.09 310.76,67.02 C315.44,64.90 317.52,61.27 316.49,57.04 L 315.88,54.50 L 318.55,57.13 C320.38,58.94 321.38,61.16 321.72,64.22 C322.16,68.15 321.85,69.10 319.10,72.24 C317.08,74.54 313.58,76.75 309.23,78.48 C300.97,81.78 298.86,83.67 295.47,90.87 C290.81,100.76 288.30,102.17 284.99,96.75 M 501.10,551.55 C491.55,548.45 482.84,540.54 477.62,530.23 C471.80,518.74 470.59,506.83 473.93,493.77 C477.76,478.78 485.02,468.17 495.99,461.51 C511.82,451.89 529.07,453.59 542.41,466.07 C555.34,478.16 560.39,495.05 556.53,513.29 C553.27,528.65 542.56,543.22 530.13,549.20 C524.45,551.93 522.21,552.43 514.50,552.68 C508.66,552.88 503.95,552.48 501.10,551.55 M 517.64,546.23 C518.38,545.76 518.73,542.04 518.64,535.55 L 518.50,525.60 L 522.50,523.32 C524.70,522.06 527.30,521.03 528.27,521.02 C529.25,521.01 532.59,523.47 535.70,526.48 C538.82,529.50 541.43,531.86 541.51,531.73 C541.60,531.61 542.80,529.42 544.19,526.88 L 546.71,522.27 L 540.30,517.62 L 533.90,512.97 L 534.20,507.74 L 534.50,502.50 L 542.50,499.93 C546.90,498.51 550.43,497.05 550.34,496.66 C550.24,496.28 549.86,494.15 549.49,491.92 C549.08,489.48 548.34,488.04 547.65,488.29 C547.02,488.53 543.50,489.74 539.83,490.97 L 533.15,493.22 L 529.07,489.93 C524.43,486.21 524.42,486.60 529.54,475.35 L 532.80,468.19 L 528.83,467.18 L 524.85,466.18 L 523.10,470.34 C522.13,472.63 520.48,476.63 519.42,479.23 C517.64,483.62 517.20,484.00 513.17,484.60 C510.80,484.96 508.50,484.86 508.07,484.37 C507.41,483.64 504.57,476.65 502.11,469.69 C501.53,468.05 501.06,468.17 497.13,471.02 L 492.80,474.16 L 494.82,476.33 C497.72,479.45 501.12,488.91 500.05,490.90 C497.61,495.47 495.35,496.32 487.51,495.66 C481.87,495.18 480.00,495.33 479.99,496.26 C479.98,496.94 479.70,498.51 479.37,499.75 C478.89,501.56 479.18,502.00 480.85,502.00 C484.01,502.00 494.34,506.02 495.75,507.80 C496.44,508.67 497.00,510.79 497.00,512.52 C497.00,515.07 496.20,516.23 492.75,518.69 C490.41,520.36 487.03,522.47 485.24,523.39 L 481.98,525.06 L 485.24,529.49 C487.03,531.93 488.80,533.94 489.16,533.96 C489.53,533.98 491.69,531.67 493.96,528.81 C500.51,520.59 501.42,520.21 506.26,523.63 L 510.33,526.50 L 510.10,534.37 C509.97,538.69 509.45,543.30 508.96,544.62 C508.09,546.90 508.23,547.00 512.27,546.98 C514.60,546.98 517.01,546.64 517.64,546.23 M 692.38,542.59 C679.12,539.37 668.31,527.99 665.04,513.79 C663.74,508.18 663.77,493.71 665.09,488.00 C668.21,474.45 681.20,458.31 692.35,454.14 C706.99,448.67 724.04,453.89 733.46,466.75 C743.32,480.21 744.65,502.89 736.57,519.70 C731.32,530.61 722.11,538.60 710.66,542.18 C703.99,544.26 699.67,544.36 692.38,542.59 M 700.33,536.16 C699.59,533.34 701.89,518.68 703.27,517.34 C703.95,516.68 706.10,515.85 708.05,515.50 C711.48,514.87 711.76,515.06 715.84,520.68 C718.17,523.88 720.50,527.17 721.01,528.00 C721.78,529.23 722.68,528.77 726.10,525.36 L 730.25,521.22 L 725.97,517.36 C720.33,512.27 718.61,508.16 719.98,503.07 C721.11,498.89 721.63,498.62 730.84,497.42 C736.77,496.64 737.54,495.69 736.55,490.41 C736.02,487.58 735.53,486.97 734.19,487.50 C733.26,487.86 729.89,488.63 726.71,489.19 L 720.91,490.23 L 717.50,486.36 C715.62,484.24 714.06,481.92 714.04,481.21 C713.98,479.35 717.50,472.75 720.38,469.33 L 722.85,466.38 L 719.41,463.64 L 715.97,460.89 L 714.23,464.03 C707.59,476.03 705.94,478.00 702.49,478.00 C697.94,478.00 696.52,476.26 695.06,468.83 C693.19,459.33 693.53,459.78 689.53,461.69 C687.59,462.61 686.00,463.65 686.00,463.98 C686.00,464.32 687.33,468.40 688.96,473.04 L 691.91,481.48 L 689.27,484.24 C686.00,487.65 683.33,487.71 677.00,484.50 C674.29,483.12 671.87,482.00 671.63,482.00 C671.14,482.00 669.00,487.82 669.00,489.15 C669.00,489.62 669.43,490.00 669.95,490.00 C670.47,490.00 673.62,491.60 676.95,493.55 L 683.00,497.10 L 683.00,501.88 C683.00,506.60 682.94,506.68 678.25,508.88 C675.64,510.11 672.48,511.88 671.24,512.81 L 668.99,514.52 L 671.58,518.33 L 674.17,522.15 L 680.59,515.99 L 687.00,509.83 L 691.00,513.00 C694.17,515.51 695.00,516.83 694.98,519.33 C694.97,522.47 692.92,531.95 691.56,535.16 C690.78,537.00 692.32,537.69 697.66,537.88 C700.26,537.98 700.73,537.68 700.33,536.16 M 504.38,518.71 C500.62,515.26 500.51,514.99 500.16,507.28 C499.83,499.89 499.98,499.18 502.52,496.16 C509.25,488.16 518.88,487.87 525.95,495.44 C527.89,497.51 528.49,499.39 528.79,504.28 C529.00,507.70 528.72,511.67 528.16,513.11 C526.82,516.59 519.14,520.96 513.11,521.67 C508.57,522.21 507.98,522.01 504.38,518.71 M 520.69,510.83 C524.04,507.67 523.88,501.84 520.37,499.07 C513.93,494.01 506.96,498.45 507.93,507.00 C508.21,509.41 512.88,513.00 515.74,513.00 C517.19,513.00 519.41,512.02 520.69,510.83 M 695.50,512.48 C690.73,509.93 688.08,506.02 688.04,501.50 C687.99,495.00 689.88,490.12 694.06,485.94 C697.44,482.56 698.62,482.00 702.35,482.00 C707.59,482.00 712.51,484.99 715.39,489.93 C719.64,497.21 716.44,509.73 709.77,511.89 C703.35,513.96 698.63,514.15 695.50,512.48 M 708.39,503.75 C710.93,501.47 711.33,500.35 711.12,496.20 C710.97,493.33 706.75,489.00 704.10,489.00 C701.14,489.00 697.08,493.06 696.38,496.71 C695.87,499.39 696.26,500.42 698.81,502.96 C702.43,506.58 705.01,506.79 708.39,503.75 Z" fill="rgba(0,0,0,1)"/>
</g>
</svg>